PathFileType	4	(x/y/z)	S09_P20_T28
DataRate	CameraRate	NumFrames	NumMarkers	Units	OrigDataRate	OrigDataStartFrame	OrigNumFrames
240	240	5	51	mm	240	208	414
Frame#	Time	Sternum			R.Acromium			L.Acromium			Top.Head			R.ASIS			L.ASIS			R.PSIS			L.PSIS			R.Great.Tro			L.Great.Tro			R.Iliac.Crest			L.Iliac.Crest			V.Sacral			R.Thigh.Upper.Post			R.Thigh.Lower.Ant			R.Thigh.Lower.Post			R.Thigh.Upper.Ant			R.Knee.Lat			R.Knee.Med			R.Shank.Upper.Post			R.Shank.Lower.Ant			R.Shank.Lower.Post			R.Shank.Upper.Ant			R.Ankle.Lat			R.Ankle.Med			R.Heel.Upper			R.Heel.Med			R.Heel.Lat			R.Toe.Lat			R.Toe.Med			R.Toe.Tip			L.Thigh.Upper.Post			L.Thigh.Lower.Ant			L.Thigh.Lower.Post			L.Thigh.Upper.Ant			L.Knee.Lat			L.Knee.Med			L.Shank.Upper.Post			L.Shank.Lower.Ant			L.Shank.Lower.Post			L.Shank.Upper.Ant			L.Ankle.Lat			L.Ankle.Med			L.Heel.Upper			L.Heel.Med			L.Heel.Lat			L.Toe.Lat			L.Toe.Med			L.Toe.Tip			Cervical.Spine			Back			
		X1	Y1	Z1	X2	Y2	Z2	X3	Y3	Z3	X4	Y4	Z4	X5	Y5	Z5	X6	Y6	Z6	X7	Y7	Z7	X8	Y8	Z8	X9	Y9	Z9	X10	Y10	Z10	X11	Y11	Z11	X12	Y12	Z12	X13	Y13	Z13	X14	Y14	Z14	X15	Y15	Z15	X16	Y16	Z16	X17	Y17	Z17	X18	Y18	Z18	X19	Y19	Z19	X20	Y20	Z20	X21	Y21	Z21	X22	Y22	Z22	X23	Y23	Z23	X24	Y24	Z24	X25	Y25	Z25	X26	Y26	Z26	X27	Y27	Z27	X28	Y28	Z28	X29	Y29	Z29	X30	Y30	Z30	X31	Y31	Z31	X32	Y32	Z32	X33	Y33	Z33	X34	Y34	Z34	X35	Y35	Z35	X36	Y36	Z36	X37	Y37	Z37	X38	Y38	Z38	X39	Y39	Z39	X40	Y40	Z40	X41	Y41	Z41	X42	Y42	Z42	X43	Y43	Z43	X44	Y44	Z44	X45	Y45	Z45	X46	Y46	Z46	X47	Y47	Z47	X48	Y48	Z48	X49	Y49	Z49	X50	Y50	Z50	X51	Y51	Z51	

208	0.8625	-274.96	1206.3	344.13	-393.39	1454.3	486.67	-416.75	1451.5	187.36	-387.81	1759.1	335.63	-319.74	1035.1	451.58	-345.08	1042.2	207.33	-546.08	1059.8	396.04	-550.37	1058.9	307.25	-398.51	947.51	528.11	-417.13	953.13	141.54	-402.68	1113.8	504.7	-456.24	1133.5	184.55	-568.04	1024.9	350.68	-418.25	698.23	487.9	-355.21	596.01	438.51	-431.83	610.1	457.53	-348.25	680.9	472.33	-386.54	522.21	426.36	-400.82	522.17	305.59	-478.06	353.37	426.07	-416.53	288.07	408.31	-488.02	278.74	410.88	-412.95	360.37	424.67	-482.26	93.939	380.18	-454.01	108.84	295.46	-547.73	81.768	328.9	-538.5	49.091	300.52	-545.32	51.616	365.32	-385.56	39.622	417.18	-337.34	42.951	309.58	-289.42	55.714	356.35	-380.61	692.09	165.88	-274.71	630.12	142.12	-334.25	613.69	172.16	-317.92	706.5	131.71	-271.33	550.07	149.32	-222.75	555.53	277.09	-355.96	443.65	147.84	-324.94	337.77	144.61	-379.83	370.63	153.51	-301.25	411.66	139.98	-427.44	174.22	170.53	-386.71	159.68	253.98	-490.7	156.19	241.16	-477.29	127.86	269.95	-505.43	130.83	214.94	-363.89	73.661	117.4	-300.76	62.509	210.04	-264.34	66.217	140.42	-490.26	1504.2	355.15	-538.78	1239	348.34
209	0.86667	-269.98	1206.4	344.23	-387.96	1454.5	486.56	-411.5	1451.6	187.33	-382.52	1759.2	335.55	-315.34	1035	451.92	-339.87	1042.5	207.6	-541.42	1059.8	395.39	-545.45	1059	306.58	-394.46	947.42	528.04	-411.38	953.63	141.27	-398.39	1113.7	504.67	-450.83	1133.8	184.41	-563.23	1024.9	349.88	-415.48	698.37	487.7	-352.93	595.82	438.45	-429.48	610.3	457.35	-345.57	680.68	472.22	-384.71	522.11	426.3	-398.87	522.12	305.45	-476.96	353.66	425.91	-415.69	288.16	408.26	-487.18	279.07	410.74	-411.87	360.44	424.57	-482.06	94.125	380.03	-453.68	109.02	295.34	-547.62	81.863	328.72	-538.38	49.161	300.4	-545.25	51.771	365.19	-385.52	39.608	417.14	-337.25	42.87	309.6	-289.3	55.511	356.39	-375.09	692.42	165.92	-269.07	630.48	142.81	-328.8	614.04	172.47	-312.22	706.82	132.09	-265.58	550.15	150.13	-217.71	556.04	277.92	-348.03	441.46	148.38	-314.16	336.52	144.26	-369.87	367.8	153.52	-292.53	411.02	140.15	-411.88	169.9	169.12	-370.7	156.02	252.45	-474.61	149.8	239.7	-460.31	121.67	268.31	-488.56	124.09	213.31	-345.6	71.441	115.38	-282	61.709	207.88	-245.83	66.743	138.21	-484.9	1504.3	355.12	-533.69	1239.3	348.38
210	0.87083	-265	1206.5	344.32	-382.52	1454.7	486.45	-406.25	1451.6	187.29	-377.23	1759.2	335.46	-310.95	1034.8	452.25	-334.64	1042.7	207.85	-536.75	1059.8	394.72	-540.53	1059.1	305.89	-390.43	947.31	527.96	-405.63	954.05	141	-394.12	1113.6	504.62	-445.39	1134	184.24	-558.41	1024.9	349.06	-412.69	698.49	487.49	-350.65	595.62	438.39	-427.12	610.49	457.16	-342.89	680.46	472.09	-382.86	522	426.24	-396.89	522.06	305.3	-475.85	353.94	425.75	-414.85	288.26	408.22	-486.32	279.4	410.58	-410.77	360.5	424.46	-481.86	94.312	379.87	-453.33	109.19	295.21	-547.49	81.955	328.52	-538.23	49.232	300.29	-545.18	51.929	365.05	-385.48	39.592	417.09	-337.15	42.787	309.62	-289.18	55.308	356.44	-369.7	692.66	166.01	-263.57	630.69	143.55	-323.51	614.26	172.84	-306.64	707.01	132.51	-260.02	550.09	150.96	-212.86	556.38	278.78	-340.16	439.16	148.94	-303.42	335.26	143.94	-359.93	364.92	153.55	-283.9	410.33	140.35	-396.18	165.67	167.74	-354.55	152.51	250.97	-458.27	143.54	238.3	-443.09	115.65	266.74	-471.47	117.49	211.76	-327.25	69.376	113.43	-263.21	61.119	205.79	-227.34	67.441	136.05	-479.53	1504.4	355.09	-528.59	1239.5	348.41
211	0.875	-260.01	1206.5	344.43	-377.08	1454.9	486.34	-401	1451.6	187.26	-371.94	1759.2	335.37	-306.56	1034.6	452.55	-329.37	1042.9	208.09	-532.08	1059.8	394.02	-535.58	1059.1	305.17	-386.4	947.18	527.86	-399.87	954.4	140.74	-389.85	1113.4	504.56	-439.92	1134.2	184.05	-553.58	1024.9	348.21	-409.89	698.61	487.28	-348.35	595.42	438.31	-424.74	610.66	456.97	-340.22	680.23	471.96	-380.99	521.89	426.18	-394.88	521.98	305.15	-474.72	354.22	425.58	-414	288.35	408.18	-485.46	279.72	410.42	-409.66	360.56	424.36	-481.65	94.501	379.71	-452.97	109.36	295.08	-547.36	82.047	328.32	-538.06	49.307	300.17	-545.11	52.093	364.91	-385.44	39.575	417.04	-337.07	42.701	309.64	-289.06	55.104	356.48	-364.44	692.81	166.14	-258.22	630.74	144.34	-318.39	614.37	173.25	-301.19	707.08	132.97	-254.65	549.9	151.8	-208.2	556.57	279.68	-332.35	436.78	149.51	-292.73	334.01	143.67	-349.99	361.99	153.61	-275.36	409.59	140.57	-380.36	161.56	166.42	-338.28	149.16	249.55	-441.69	137.44	236.96	-425.65	109.84	265.26	-454.17	111.05	210.29	-308.84	67.487	111.56	-244.38	60.76	203.77	-208.88	68.332	133.97	-474.17	1504.5	355.06	-523.49	1239.7	348.42
212	0.87917	-255.01	1206.5	344.53	-371.65	1455	486.23	-395.74	1451.5	187.22	-366.65	1759.2	335.27	-302.17	1034.4	452.85	-324.08	1043	208.31	-527.4	1059.7	393.3	-530.61	1059.2	304.44	-382.37	947.03	527.74	-394.11	954.66	140.49	-385.58	1113.2	504.47	-434.43	1134.4	183.84	-548.74	1024.9	347.35	-407.08	698.71	487.07	-346.05	595.21	438.22	-422.34	610.81	456.77	-337.55	680.01	471.81	-379.1	521.76	426.12	-392.82	521.9	304.99	-473.57	354.5	425.4	-413.14	288.45	408.14	-484.58	280.05	410.25	-408.53	360.62	424.26	-481.44	94.694	379.54	-452.59	109.52	294.94	-547.21	82.141	328.12	-537.88	49.385	300.05	-545.03	52.262	364.75	-385.4	39.557	416.98	-336.98	42.613	309.66	-288.94	54.9	356.53	-359.32	692.86	166.31	-253.02	630.63	145.18	-313.42	614.36	173.7	-295.87	707.02	133.47	-249.45	549.59	152.66	-203.72	556.59	280.62	-324.6	434.31	150.09	-282.08	332.78	143.43	-340.07	359.04	153.7	-266.91	408.81	140.82	-364.41	157.59	165.16	-321.91	146	248.19	-424.89	131.51	235.7	-408.01	104.25	263.86	-436.68	104.81	208.91	-290.4	65.796	109.79	-225.54	60.651	201.84	-190.45	69.438	131.96	-468.81	1504.5	355.02	-518.4	1239.9	348.41
